<?xml version="1.0" standalone="no"?>
<!DOCTYPE svg PUBLIC "-//W3C//DTD SVG 20010904//EN"
 "http://www.w3.org/TR/2001/REC-SVG-20010904/DTD/svg10.dtd">
<svg version="1.0" xmlns="http://www.w3.org/2000/svg"
 width="600.000000pt" height="600.000000pt" viewBox="0 0 600.000000 600.000000"
 preserveAspectRatio="xMidYMid meet">
<metadata>
Created by potrace 1.14, written by Peter Selinger 2001-2017
</metadata>
<g transform="translate(0.000000,600.000000) scale(0.100000,-0.100000)"
fill="#000000" stroke="none">
<path d="M3197 5046 c-32 -14 -81 -27 -108 -31 -44 -6 -53 -4 -70 14 -11 12
-25 21 -30 21 -15 0 -213 -68 -283 -97 -33 -13 -92 -31 -132 -39 -41 -7 -88
-20 -106 -27 -18 -8 -73 -24 -123 -36 -49 -13 -96 -24 -102 -27 -31 -9 -9 18
30 37 85 44 137 99 92 99 -26 0 -147 -52 -152 -66 -3 -8 -26 -20 -52 -28 -26
-8 -86 -34 -133 -59 -47 -24 -96 -47 -110 -50 -28 -7 -172 -99 -183 -117 -4
-7 -9 -32 -10 -56 -2 -34 -9 -49 -30 -65 -14 -12 -40 -50 -56 -85 -17 -36 -45
-78 -62 -95 l-32 -30 23 -19 c23 -19 24 -19 75 1 29 11 89 33 134 49 46 16 93
36 105 44 12 9 30 16 38 16 9 0 31 11 49 24 18 14 52 28 74 31 23 4 47 11 52
15 6 5 42 17 81 28 38 11 98 34 133 51 46 24 66 29 75 22 10 -8 20 -5 40 10
20 16 33 19 59 13 58 -13 140 0 277 46 30 10 78 22 105 28 150 31 301 81 342
114 20 15 43 28 51 28 9 0 34 9 56 19 60 28 165 71 212 86 70 23 106 45 100
61 -3 9 -6 20 -6 25 0 16 -57 10 -110 -11 -46 -18 -54 -19 -78 -6 -15 8 -43
20 -62 27 -19 7 -48 23 -63 36 -35 28 -38 28 -110 -1z"/>
<path d="M3960 5019 c-58 -22 -154 -57 -215 -78 -60 -21 -128 -48 -150 -60
-22 -11 -45 -21 -51 -21 -6 0 -26 -8 -45 -17 l-34 -18 42 -3 c23 -2 77 6 120
17 43 11 107 22 143 25 47 5 69 11 80 25 21 27 89 59 158 75 68 16 90 26 117
56 16 18 17 23 5 30 -26 17 -62 10 -170 -31z"/>
<path d="M4220 4951 c-14 -5 -40 -15 -57 -24 -21 -11 -56 -17 -100 -17 -37 0
-86 -5 -108 -11 -34 -10 -37 -13 -20 -20 11 -4 47 -11 80 -14 53 -6 63 -11 97
-48 21 -23 38 -45 38 -49 0 -14 55 -8 77 7 13 9 27 33 33 53 8 31 19 43 62 68
29 16 54 37 56 47 3 15 -5 17 -65 16 -37 0 -79 -4 -93 -8z"/>
<path d="M4450 4769 c-63 -22 -149 -49 -190 -60 -80 -21 -110 -44 -110 -86 0
-25 2 -25 45 -19 46 6 210 60 229 75 6 5 34 16 61 26 40 15 115 57 145 82 8 7
-24 23 -45 23 -11 0 -72 -19 -135 -41z"/>
<path d="M4585 4640 c-16 -5 -62 -17 -100 -28 -39 -10 -80 -24 -92 -30 -30
-17 -137 -56 -298 -110 -77 -27 -145 -51 -152 -55 -6 -4 -46 -12 -89 -18 -44
-6 -92 -17 -108 -25 -33 -16 -122 -19 -131 -4 -3 6 3 10 15 10 23 0 70 27 70
41 0 13 -45 11 -103 -5 -29 -7 -97 -22 -152 -31 -55 -10 -131 -29 -170 -42
-38 -14 -101 -31 -140 -39 -121 -25 -268 -65 -313 -85 -24 -10 -58 -21 -77
-25 -44 -8 -60 -28 -73 -89 -14 -69 -26 -258 -18 -290 7 -26 8 -27 69 -22 34
2 114 14 177 26 104 20 134 21 310 15 170 -6 199 -9 223 -26 26 -19 37 -48 17
-48 -5 0 -10 -7 -10 -15 0 -12 13 -15 60 -15 l60 0 0 -67 c0 -58 -5 -81 -37
-150 l-38 -83 -55 -17 c-31 -10 -74 -15 -100 -13 -90 8 -267 1 -330 -14 -36
-9 -128 -22 -205 -30 -189 -20 -214 -34 -251 -134 -14 -40 -32 -112 -39 -160
-13 -85 -42 -174 -71 -220 -8 -13 -12 -31 -9 -41 8 -25 -83 -159 -143 -211
l-47 -41 -75 5 c-41 3 -85 6 -98 7 -12 0 -61 -21 -109 -47 -81 -45 -88 -52
-100 -91 -13 -49 -7 -52 57 -32 19 6 82 15 140 19 58 5 132 14 165 21 77 16
147 17 152 2 2 -6 -17 -24 -44 -39 -67 -38 -83 -54 -83 -79 0 -22 -18 -40
-116 -119 -50 -41 -62 -70 -40 -95 17 -19 19 -19 49 -1 18 10 42 21 55 25 13
4 125 62 250 130 125 67 243 126 262 130 19 4 71 23 115 42 44 19 105 43 136
53 31 10 88 34 128 54 39 20 119 52 177 71 57 19 119 41 137 49 18 8 84 33
149 55 64 21 127 46 140 54 12 8 82 31 153 52 172 48 214 63 253 93 36 27 37
31 19 56 -13 18 -17 18 -78 2 -36 -9 -79 -16 -96 -16 -28 0 -32 4 -44 48 -7
26 -13 50 -13 54 -2 14 110 89 157 106 60 21 109 68 87 82 -22 14 -62 12 -110
-5 -54 -19 -80 -19 -116 0 -16 8 -39 15 -51 15 -53 0 -9 40 67 60 25 7 59 18
75 26 17 8 47 20 67 28 31 12 42 25 62 69 13 31 38 65 55 78 24 17 31 30 31
56 0 38 -1 38 -55 18 -56 -20 -225 -20 -225 0 0 8 8 18 18 23 19 11 148 44
237 62 33 7 124 37 203 68 l142 55 0 34 0 35 -82 -5 c-46 -4 -101 -9 -123 -13
-36 -5 -38 -4 -25 9 8 8 40 22 70 30 133 37 226 69 255 87 52 34 135 70 160
70 29 0 33 20 7 43 -15 14 -27 14 -116 1 -55 -8 -118 -14 -140 -12 l-41 3 36
16 c31 14 79 65 79 83 0 3 -27 6 -59 6 -93 0 -92 39 1 54 23 4 58 15 77 26 20
11 64 30 98 44 107 42 139 75 114 114 -7 11 -17 11 -57 -1 -27 -8 -69 -20 -94
-26 -25 -6 -80 -21 -123 -32 -43 -11 -81 -19 -84 -16 -2 3 18 17 46 31 84 42
162 106 159 130 -5 34 -39 30 -127 -13 -45 -22 -118 -54 -164 -71 -45 -17 -91
-37 -102 -44 -11 -7 -38 -19 -60 -26 -22 -7 -47 -18 -55 -25 -13 -11 -94 -37
-330 -105 -41 -12 -95 -32 -120 -45 -38 -19 -92 -31 -172 -38 -38 -4 -20 17
29 34 29 10 74 29 100 43 60 32 99 48 188 76 39 12 87 31 107 41 21 11 42 19
48 19 10 0 210 82 305 125 17 7 82 27 145 45 63 18 126 39 140 49 14 9 44 25
67 35 66 29 64 46 -5 45 -31 -1 -70 -5 -87 -9z m-358 -816 c-3 -3 -12 -4 -19
-1 -8 3 -5 6 6 6 11 1 17 -2 13 -5z m-959 -937 c-26 -23 -70 -43 -160 -71 -67
-21 -132 -44 -143 -51 -26 -16 -105 -30 -105 -18 1 22 25 36 134 73 65 22 132
48 149 57 29 16 111 39 147 41 8 1 -1 -13 -22 -31z m-98 -202 c0 -8 -7 -15
-15 -15 -16 0 -20 12 -8 23 11 12 23 8 23 -8z"/>
<path d="M2128 4420 c-14 -10 -43 -24 -64 -29 -99 -24 -478 -204 -536 -253
-67 -58 -23 -84 78 -48 33 11 101 30 152 40 63 13 124 34 190 67 88 44 101 54
149 118 29 39 65 77 80 85 14 9 28 21 31 28 6 20 -53 14 -80 -8z"/>
<path d="M2040 4183 c-53 -16 -218 -90 -253 -114 -23 -16 -51 -29 -62 -29 -11
0 -51 -22 -89 -48 -54 -37 -76 -60 -100 -104 -52 -96 -61 -105 -85 -90 -29 17
-31 16 -31 -23 0 -34 20 -49 35 -25 5 9 47 5 67 -6 7 -5 -59 -156 -85 -196
-15 -21 -16 -31 -7 -47 9 -17 20 -21 60 -21 49 0 205 44 216 61 8 13 44 11 44
-2 0 -6 -9 -13 -20 -16 -50 -13 -245 -115 -251 -131 -20 -57 -20 -71 3 -77 13
-3 56 6 97 20 84 30 121 27 121 -8 -1 -25 -28 -48 -78 -65 -18 -6 -45 -20 -59
-32 -14 -11 -35 -20 -47 -20 -25 0 -171 -81 -203 -113 -12 -12 -25 -36 -29
-53 -5 -28 -3 -32 25 -42 38 -14 39 -23 3 -59 -26 -26 -51 -97 -38 -110 2 -3
35 3 73 12 38 9 82 15 98 13 28 -3 30 -6 33 -48 2 -25 7 -49 13 -55 16 -16 10
-40 -21 -81 -34 -45 -36 -57 -15 -74 12 -10 32 -7 102 15 132 40 256 87 274
102 8 7 19 13 23 13 12 0 149 68 166 82 19 16 94 203 97 239 0 14 9 73 18 130
9 57 18 156 20 219 3 125 9 159 36 205 24 42 39 147 43 297 l4 128 -39 10
c-22 6 -39 15 -39 20 0 5 -8 11 -17 14 -10 3 -31 28 -46 56 -31 55 -36 59 -57
53z m-60 -138 c0 -9 -82 -46 -93 -42 -15 5 52 47 76 47 9 0 17 -2 17 -5z"/>
<path d="M1935 2685 c-33 -19 -67 -37 -75 -41 -47 -23 -70 -47 -70 -73 0 -58
32 -64 116 -22 33 15 70 31 84 35 14 3 30 9 36 13 14 10 34 91 27 109 -8 22
-54 14 -118 -21z"/>
<path d="M840 1910 l0 -140 30 0 30 0 0 140 0 140 -30 0 -30 0 0 -140z"/>
<path d="M930 1911 l0 -141 30 0 30 0 0 110 0 110 70 0 c56 0 74 -4 90 -20 20
-20 18 -47 -4 -62 -6 -4 -39 -8 -73 -8 l-63 0 0 -31 0 -31 79 3 c88 4 115 20
129 73 12 45 0 86 -31 110 -24 18 -46 22 -143 24 l-114 4 0 -141z"/>
<path d="M1230 2020 c0 -29 1 -30 50 -30 l50 0 0 -110 0 -110 30 0 30 0 0 110
0 110 49 0 c37 0 50 4 53 15 2 9 37 -41 78 -109 56 -94 80 -126 95 -126 15 0
39 32 98 129 42 71 77 134 77 140 0 6 -13 11 -29 11 -26 0 -34 -9 -82 -95 -30
-52 -57 -95 -61 -95 -4 0 -32 43 -63 95 l-56 95 -159 0 -160 0 0 -30z"/>
<path d="M1860 1910 l0 -140 30 0 30 0 0 110 0 110 91 0 90 0 -3 28 -3 27
-117 3 -118 3 0 -141z"/>
<path d="M2110 1911 l0 -141 30 0 30 0 0 110 0 110 71 0 c78 0 109 -11 109
-40 0 -45 -9 -50 -86 -50 l-74 0 0 -30 c0 -30 1 -30 54 -30 49 0 57 -3 85 -35
29 -34 33 -35 100 -35 l70 0 3 43 c2 23 2 86 0 140 l-3 98 -27 -3 -27 -3 0
-133 c0 -72 -2 -132 -6 -132 -3 0 -20 16 -39 35 -32 34 -33 35 -16 54 10 11
21 40 23 64 5 39 1 48 -25 78 l-30 34 -121 4 -121 3 0 -141z"/>
<path d="M2659 2033 c0 -10 -1 -34 -2 -53 l-2 -35 -67 -3 c-68 -3 -68 -3 -68
-32 l0 -30 70 0 70 0 0 -55 c0 -55 0 -55 30 -55 l31 0 -3 138 -3 137 -27 3
c-21 3 -28 -1 -29 -15z"/>
<path d="M2811 1915 c-44 -74 -81 -137 -81 -140 0 -3 15 -5 33 -5 30 0 35 6
87 96 58 101 58 102 91 42 8 -16 5 -18 -25 -18 -29 0 -38 -5 -51 -30 l-16 -30
69 0 c65 0 68 -1 85 -30 15 -24 25 -30 53 -30 19 0 33 3 31 8 -25 47 -144 241
-155 255 -8 9 -21 17 -27 17 -7 0 -49 -61 -94 -135z"/>
<path d="M3112 2038 c-8 -8 -12 -54 -12 -140 l0 -128 30 0 29 0 3 86 3 86 80
-82 c95 -97 108 -106 129 -84 13 12 16 41 16 145 l0 129 -30 0 -30 0 0 -92 0
-93 -93 93 c-51 50 -97 92 -103 92 -5 0 -15 -5 -22 -12z"/>
<path d="M1940 1905 c0 -24 2 -25 70 -25 68 0 70 1 70 25 0 24 -2 25 -70 25
-68 0 -70 -1 -70 -25z"/>
<path d="M932 1570 c-67 -16 -107 -76 -100 -152 12 -121 157 -168 243 -78 23
24 30 41 33 88 4 55 2 61 -28 95 -26 30 -86 61 -110 56 -3 -1 -20 -5 -38 -9z
m102 -82 c22 -30 20 -81 -3 -109 -27 -33 -95 -33 -122 0 -23 28 -25 79 -3 109
12 18 25 22 64 22 39 0 52 -4 64 -22z"/>
<path d="M1230 1568 c-123 -35 -136 -201 -20 -261 89 -46 202 24 202 126 0 99
-86 163 -182 135z m105 -78 c28 -30 22 -90 -11 -118 -53 -46 -134 -8 -134 62
0 41 17 64 55 74 39 11 70 4 90 -18z"/>
<path d="M3047 1566 c-51 -19 -75 -42 -88 -87 -33 -110 63 -213 170 -181 127
38 145 205 28 261 -50 24 -59 25 -110 7z m108 -76 c10 -11 17 -35 17 -57 0
-51 -40 -87 -90 -80 -44 8 -60 22 -67 61 -9 48 9 84 47 94 42 11 72 5 93 -18z"/>
<path d="M1460 1552 c-13 -10 -23 -33 -27 -59 -5 -35 -2 -45 20 -67 24 -24 33
-26 117 -26 49 0 90 -4 90 -8 0 -24 -30 -32 -112 -32 l-88 0 0 -35 0 -35 63 0
c98 1 148 14 173 46 44 54 36 161 -15 206 -29 26 -38 28 -115 28 -65 0 -89 -4
-106 -18z m188 -54 c7 -7 12 -20 12 -30 0 -16 -10 -18 -79 -18 -71 0 -80 2
-86 20 -3 11 -3 24 0 30 9 14 138 13 153 -2z"/>
<path d="M1794 1551 c-73 -44 -71 -190 2 -238 41 -26 183 -26 213 1 26 23 29
91 5 124 -14 20 -23 22 -110 22 -70 0 -94 3 -94 13 0 29 25 37 117 37 l93 0 0
30 0 30 -97 0 c-79 0 -104 -4 -129 -19z m180 -158 c11 -27 -7 -34 -79 -31 -57
3 -70 6 -83 26 l-14 22 85 0 c70 0 86 -3 91 -17z"/>
<path d="M2060 1493 c1 -50 6 -84 14 -96 17 -23 67 -37 128 -37 l48 0 0 -35
c0 -32 2 -35 30 -35 28 0 30 3 30 35 0 28 4 35 20 35 16 0 20 7 20 30 0 23 -4
30 -20 30 -18 0 -20 7 -20 75 l0 75 -30 0 -30 0 0 -75 0 -75 -49 0 c-78 0 -81
3 -81 81 l0 69 -30 0 -30 0 0 -77z"/>
<path d="M2360 1540 l0 -30 86 0 85 0 -85 -104 c-47 -57 -86 -107 -86 -110 0
-3 16 -5 35 -4 33 1 43 10 131 119 59 73 94 125 92 136 -3 16 -17 18 -131 21
l-127 3 0 -31z"/>
<path d="M2640 1490 l0 -79 113 -3 c108 -3 112 -4 115 -25 3 -23 2 -23 -112
-23 l-116 0 0 -36 0 -36 121 4 c118 4 122 5 145 32 33 38 32 88 -2 115 -23 18
-41 21 -115 21 -88 0 -89 0 -89 25 l0 25 110 0 110 0 0 30 0 30 -140 0 -140 0
0 -80z"/>
<path d="M3281 1544 c-23 -30 -26 -55 -10 -86 8 -14 8 -23 0 -31 -15 -15 -13
-78 3 -100 27 -35 139 -49 219 -26 29 8 42 19 55 45 15 34 15 37 -1 66 -12 22
-15 34 -7 42 20 20 11 73 -16 95 -23 18 -41 21 -125 21 -94 0 -98 -1 -118 -26z
m207 -56 c-3 -21 -9 -23 -73 -26 -75 -2 -101 7 -92 32 5 13 22 16 87 16 79 0
81 -1 78 -22z m5 -90 c10 -31 -5 -38 -89 -38 -75 0 -84 2 -84 18 0 29 8 32 91
32 53 0 79 -4 82 -12z"/>
<path d="M3590 1540 l0 -30 101 0 c98 0 100 0 97 -22 -3 -21 -9 -23 -84 -26
-103 -4 -116 -15 -122 -108 l-4 -64 136 0 136 0 0 35 0 35 -106 0 c-104 0
-105 0 -102 23 3 20 9 22 86 27 73 4 86 8 103 29 26 32 25 82 -4 109 -21 20
-34 22 -130 22 l-107 0 0 -30z"/>
<path d="M3880 1490 l0 -80 115 0 115 0 0 -25 0 -25 -115 0 -115 0 0 -36 0
-36 119 3 c110 4 121 6 145 28 34 32 36 91 4 121 -19 17 -35 20 -115 20 -93 0
-93 0 -93 25 l0 25 110 0 110 0 0 30 0 30 -140 0 -140 0 0 -80z"/>
<path d="M4215 1545 c-36 -35 -35 -96 1 -124 23 -18 41 -21 115 -21 49 0 89
-4 89 -8 0 -24 -30 -32 -112 -32 l-88 0 0 -36 0 -37 94 6 c141 8 173 39 164
158 -4 54 -8 66 -36 90 -30 27 -38 29 -118 29 -77 0 -87 -2 -109 -25z m195
-54 c19 -37 12 -41 -70 -41 -62 0 -82 3 -86 15 -14 35 3 45 75 45 59 0 72 -3
81 -19z"/>
<path d="M4490 1540 c0 -26 3 -30 29 -30 37 0 41 -11 41 -126 l0 -95 28 3 27
3 0 112 c0 104 -2 113 -24 137 -18 19 -35 26 -63 26 -36 0 -38 -2 -38 -30z"/>
<path d="M4640 1540 l0 -30 106 0 c104 0 105 0 102 -22 -3 -21 -9 -23 -75 -26
-70 -3 -73 -4 -73 -27 0 -23 3 -24 78 -27 69 -3 77 -5 77 -23 0 -19 -8 -20
-107 -23 l-108 -3 0 -36 0 -36 115 5 c92 3 118 8 134 23 29 25 37 79 17 110
-10 15 -12 26 -6 30 18 11 11 74 -10 95 -18 18 -33 20 -135 20 l-115 0 0 -30z"/>
<path d="M4949 1568 c-1 -2 -3 -38 -5 -80 l-4 -77 117 -3 c110 -3 118 -4 118
-23 0 -19 -8 -20 -112 -23 -62 -1 -114 -6 -114 -10 -1 -4 -2 -18 -3 -32 l-1
-25 122 0 c114 0 124 2 145 23 29 28 31 91 4 121 -17 18 -31 21 -113 21 -93 0
-93 0 -93 25 l0 25 105 0 105 0 0 30 0 30 -135 0 c-74 0 -135 -1 -136 -2z"/>
</g>
</svg>
